<svg width="21" height="22" viewBox="0 0 21 22" fill="none" xmlns="http://www.w3.org/2000/svg">
<path fill-rule="evenodd" clip-rule="evenodd" d="M16.3603 1.96507C15.9556 1.96507 15.6278 1.63727 15.6278 1.23254C15.6278 0.827801 15.9556 0.5 16.3603 0.5H19.2904C20.2345 0.5 21 1.26458 21 2.20956V5.13971C21 5.54445 20.6722 5.87225 20.2675 5.87225C19.8627 5.87225 19.5349 5.54445 19.5349 5.13971V2.20956C19.5349 2.07496 19.426 1.96507 19.2904 1.96507H16.3603Z" fill="#91D5FF"/>
<path fill-rule="evenodd" clip-rule="evenodd" d="M16.3603 21.5C15.9556 21.5 15.6278 21.1722 15.6278 20.7675C15.6278 20.3627 15.9556 20.0349 16.3603 20.0349H19.2904C19.425 20.0349 19.5349 19.926 19.5349 19.7904V16.8603C19.5349 16.4556 19.8627 16.1278 20.2675 16.1278C20.6722 16.1278 21 16.4556 21 16.8603V19.7904C21 20.7345 20.2354 21.5 19.2904 21.5H16.3603Z" fill="#91D5FF"/>
<path fill-rule="evenodd" clip-rule="evenodd" d="M4.63971 0.5C5.04444 0.5 5.37224 0.827801 5.37224 1.23254C5.37224 1.63727 5.04444 1.96507 4.63971 1.96507H1.70956C1.57496 1.96507 1.46507 2.07404 1.46507 2.20956V5.13971C1.46507 5.54445 1.13727 5.87225 0.732536 5.87225C0.327801 5.87225 0 5.54445 0 5.13971V2.20956C0 1.26552 0.76458 0.5 1.70956 0.5H4.63971Z" fill="#91D5FF"/>
<path fill-rule="evenodd" clip-rule="evenodd" d="M4.63971 20.0349C5.04444 20.0349 5.37224 20.3627 5.37224 20.7675C5.37224 21.1722 5.04444 21.5 4.63971 21.5H1.70956C0.765518 21.5 0 20.7354 0 19.7904V16.8603C0 16.4556 0.327801 16.1278 0.732536 16.1278C1.13727 16.1278 1.46507 16.4556 1.46507 16.8603V19.7904C1.46507 19.925 1.57404 20.0349 1.70956 20.0349H4.63971Z" fill="#91D5FF"/>
<path fill-rule="evenodd" clip-rule="evenodd" d="M11.0879 2.6737L17.7879 6.35373C18.0223 6.48284 18.1679 6.72917 18.1679 6.99654C18.1679 7.26299 18.0223 7.50931 17.7879 7.63843L10.8526 11.4486C10.6328 11.5685 10.3673 11.5685 10.1475 11.4486L3.21219 7.63843C2.97778 7.50932 2.83219 7.26299 2.83219 6.99654C2.83219 6.72917 2.97778 6.48285 3.21219 6.35373L9.91215 2.6737C10.2784 2.47225 10.7216 2.47225 11.0879 2.6737ZM10.5 4.02248L5.08561 6.9967L10.5 9.97092L15.9145 6.9967L10.5 4.02248Z" fill="#91D5FF"/>
<path fill-rule="evenodd" clip-rule="evenodd" d="M17.7879 14.2654C18.1422 14.4595 18.2713 14.9054 18.0772 15.2598C17.8831 15.6141 17.4362 15.7442 17.0828 15.5491L12.1006 12.8121C11.7462 12.618 11.6162 12.1721 11.8113 11.8177C12.0054 11.4634 12.4513 11.3333 12.8057 11.5284L17.7879 14.2654Z" fill="#91D5FF"/>
<path fill-rule="evenodd" clip-rule="evenodd" d="M8.19433 11.5284C8.54869 11.3333 8.99463 11.4634 9.18875 11.8177C9.38379 12.1721 9.25376 12.618 8.89939 12.8122L3.91721 15.5491C3.56376 15.7442 3.1169 15.6142 2.92279 15.2598C2.72867 14.9054 2.85778 14.4595 3.21215 14.2654L8.19433 11.5284Z" fill="#91D5FF"/>
<path fill-rule="evenodd" clip-rule="evenodd" d="M10.5 17.9775L16.7028 14.5703V7.09307C16.7028 6.68834 17.0306 6.36054 17.4353 6.36054C17.84 6.36054 18.1678 6.68834 18.1678 7.09307V15.0035C18.1678 15.2709 18.0222 15.5172 17.7878 15.6463L11.0879 19.3264C10.7216 19.5278 10.2784 19.5278 9.91217 19.3264L3.21222 15.6463C2.9778 15.5172 2.83221 15.2709 2.83221 15.0035V6.99603C2.83221 6.59129 3.16001 6.26349 3.56475 6.26349C3.96948 6.26349 4.29728 6.59129 4.29728 6.99603V14.5703L10.5 17.9775Z" fill="#91D5FF"/>
<path fill-rule="evenodd" clip-rule="evenodd" d="M9.76746 10.8059C9.76746 10.4012 10.0953 10.0734 10.5 10.0734C10.9047 10.0734 11.2325 10.4012 11.2325 10.8059V18.2933C11.2325 18.698 10.9047 19.0258 10.5 19.0258C10.0953 19.0258 9.76746 18.698 9.76746 18.2933V10.8059Z" fill="#91D5FF"/>
</svg>
