<?xml version="1.0" encoding="utf-8"?>
<!-- Generator: Adobe Illustrator 25.2.3, SVG Export Plug-In . SVG Version: 6.00 Build 0)  -->
<svg version="1.1" xmlns="http://www.w3.org/2000/svg" xmlns:xlink="http://www.w3.org/1999/xlink" x="0px" y="0px"
	 viewBox="0 0 1051.3 470.47" style="enable-background:new 0 0 1051.3 470.47;" xml:space="preserve">
<style type="text/css">
	.st0{fill:url(#SVGID_1_);}
	.st1{fill:#E50056;}
	.st2{fill:#1F0038;}
	.st3{display:none;}
	.st4{display:inline;}
</style>
<g id="Logo">
	<g>
		<g>
			<linearGradient id="SVGID_1_" gradientUnits="userSpaceOnUse" x1="227.1098" y1="285.4105" x2="168.8549" y2="-14.285">
				<stop  offset="0.1411" style="stop-color:#E50056"/>
				<stop  offset="0.75" style="stop-color:#1F0038"/>
			</linearGradient>
			<path class="st0" d="M251.86,131.64c-42,19.18-70.4,55.91-70.4,98.07c0,53.21,49.01,96.35,109.47,96.35
				c27.75,0,47.26-6.41,70.07-20.14c2.43-1.45,5.15-2.54,6.95-0.27c1.03,1.3,0.6,2.88-0.19,4.32
				c-24.92,45.72-75.62,77.5-132.52,77.5c-84.07,0-152.23-68.16-152.23-152.23c0-48.01,22.22-90.83,56.94-118.73
				C166.04,95.55,231.42,92.65,251.86,131.64z"/>
		</g>
		<path class="st1" d="M366,190.59c0,50.57-48.29,91.56-107.87,91.56c-8.67,0-32.14-1.19-48.94-9.01c-4.78-2.22-4.29-5.02-1-6.38
			c7.63-3.15,67.5-14.64,67.5-76.17v0c0-61.53-63.53-106.52-135.74-74.08l0,0c26.08-20.96,59.22-33.5,95.29-33.5
			C305.94,83.01,366,131.17,366,190.59L366,190.59z"/>
	</g>
	<g>
		<path class="st2" d="M474.37,194.12c-32.8,0-50.36,19.74-50.36,45.28v0.73c0,25.69,13.93,42.53,48.91,42.53
			c25.25,0,42.24-8.13,49.49-27.29h-24.38c-3.63,6.24-10.45,9.73-23.51,9.73c-17.85,0-26.71-6.53-29.03-18.43h78.09v-8.85
			C523.57,212.55,506.59,194.12,474.37,194.12z M445.77,230.11c2.9-11.76,12.48-18.58,29.03-18.58c16.11,0,24.38,5.95,26.56,18.58
			H445.77z"/>
		<path class="st2" d="M622.12,174.09h-18.87c0,3.77-0.14,9.87-0.87,13.79c-1.31,6.97-3.05,8.44-9.29,9.02
			c-3.92,0.29-8.27,0.29-12.48,0.29h-14.8v-3.5c0-12.63,2.47-14.95,13.5-14.95h7.31v-18h-9.78c-24.09,0-32.37,8.13-32.37,32.08v4.37
			h-19.59v18.85h19.59v64.15h21.19l0.14-64.15h35.12v26.13c0,28.3,7.55,38.03,35.27,38.03h15.82V260.3h-10.02
			c-17.13,0-19.88-2.47-19.88-21.77v-22.5h29.9v-18.85h-29.9V174.09z"/>
		<path class="st2" d="M718.35,194.41c-16.26,0-28.74,6.68-35.13,18.14l-1.85-15.37h-19.05v112.47h21.92v-42.67
			c5.95,9.87,16.84,15.38,33.53,15.38c23.51,0,42.96-14.22,42.96-42.82v-0.73C760.74,209.94,744.48,194.41,718.35,194.41z
			 M737.95,239.4c0,15.82-8.27,24.53-27.14,24.53c-17.85,0-27-8.85-27-24.67v-0.58c0-16.4,10.31-26.13,27.29-26.13
			c17.85,0,26.85,9,26.85,26.27V239.4z"/>
		<path class="st2" d="M819.23,194.12c-29.75,0-49.93,16.69-49.93,44.56v0.87c0,27.14,14.95,43.11,49.49,43.11
			c33.53,0,50.51-16.69,50.51-43.11v-0.87C869.3,210.52,849.56,194.12,819.23,194.12z M846.52,239.4c0,15.82-8.27,24.53-27.29,24.53
			c-18.29,0-27.14-8.56-27.14-24.53v-0.73c0-17.13,9.87-26.13,27.43-26.13c18,0,27,9.29,27,26.13V239.4z"/>
		<path class="st2" d="M927.07,229.39c-21.63-1.45-27.58-2.9-27.58-9c0-5.08,4.21-9.43,19.74-9.43c13.64,0,22.06,3.19,23.95,11.47
			h23.8c-4.5-18.72-19.3-28.3-47.46-28.3c-28.16,0-41.8,11.9-41.8,28.01c0,17.27,14.51,22.79,40.35,24.24
			c21.48,1.16,28.16,2.47,28.16,8.71c0,6.1-5.22,9.87-20.9,9.87c-16.11,0-23.37-3.48-25.69-12.34h-25.26
			c3.63,20.03,19.3,30.04,50.07,30.04c29.17,0,43.83-11.9,43.83-28.45C968.29,236.35,955.81,231.13,927.07,229.39z"/>
	</g>
	<path class="st2" d="M977.68,212.36c-2.64,0-4.83-0.76-6.57-2.27s-2.6-3.72-2.6-6.61v-0.43c0-0.92,0.1-1.79,0.31-2.6
		c0.21-0.81,0.5-1.55,0.88-2.22c0.8-1.37,1.88-2.43,3.25-3.18c1.37-0.75,2.91-1.12,4.63-1.12c0.86,0,1.67,0.09,2.44,0.26
		c0.76,0.17,1.5,0.44,2.2,0.79c1.37,0.73,2.47,1.77,3.29,3.13c0.83,1.35,1.24,2.98,1.24,4.89v0.48c0,0.95-0.1,1.84-0.31,2.65
		c-0.21,0.81-0.52,1.54-0.93,2.17c-0.8,1.34-1.88,2.35-3.25,3.03C980.9,212.01,979.37,212.36,977.68,212.36z M977.68,210.83
		c2.16,0,3.94-0.64,5.32-1.91c1.38-1.27,2.08-3.12,2.08-5.54v-0.29c0-2.42-0.71-4.29-2.12-5.61c-1.42-1.32-3.21-1.98-5.37-1.98
		c-2.13,0-3.9,0.68-5.3,2.05c-1.4,1.37-2.1,3.23-2.1,5.59v0.24c0,2.39,0.7,4.23,2.1,5.52C973.69,210.18,975.48,210.83,977.68,210.83
		z M977.78,204.24h-1.96v3.49h-1.62v-9.41h3.77c1.31,0,2.24,0.25,2.79,0.76c0.56,0.51,0.84,1.18,0.84,2.01c0,0.67-0.16,1.2-0.48,1.6
		c-0.32,0.4-0.8,0.68-1.43,0.84c0.6,0.13,1.03,0.37,1.29,0.72c0.25,0.35,0.38,0.89,0.38,1.62v1.38c0,0.1,0.02,0.18,0.05,0.26
		c0.03,0.08,0.06,0.15,0.1,0.21h-1.67c-0.03-0.03-0.06-0.09-0.07-0.17c-0.02-0.08-0.02-0.18-0.02-0.31v-1.38
		c0-0.61-0.11-1.03-0.33-1.27C979.18,204.36,978.64,204.24,977.78,204.24z M977.78,202.85c0.83,0.03,1.41-0.1,1.74-0.41
		c0.33-0.3,0.5-0.74,0.5-1.31c0-0.48-0.18-0.84-0.53-1.07c-0.35-0.24-0.89-0.36-1.62-0.36h-2.05v3.15H977.78z"/>
</g>
<g id="Guides" class="st3">
	<g class="st4">
		<g>
		</g>
	</g>
	<g class="st4">
		<g>
		</g>
	</g>
	<g class="st4">
		<g>
		</g>
	</g>
	<g class="st4">
		<g>
		</g>
	</g>
	<g class="st4">
		<g>
		</g>
	</g>
	<g class="st4">
		<g>
		</g>
	</g>
</g>
</svg>
